<?xml version="1.0" standalone="no"?>
<!DOCTYPE svg PUBLIC "-//W3C//DTD SVG 20010904//EN"
 "http://www.w3.org/TR/2001/REC-SVG-20010904/DTD/svg10.dtd">
<svg version="1.0" xmlns="http://www.w3.org/2000/svg"
 width="700.000000pt" height="700.000000pt" viewBox="0 0 700.000000 700.000000"
 preserveAspectRatio="xMidYMid meet">
<metadata>
Created by potrace 1.14, written by Peter Selinger 2001-2017
</metadata>
<g transform="translate(0.000000,700.000000) scale(0.100000,-0.100000)"
fill="#000000" stroke="none">
<path d="M3490 6677 c0 -40 -7 -147 -15 -238 -71 -750 -272 -1331 -626 -1806
-94 -127 -356 -388 -484 -484 -470 -351 -1055 -553 -1804 -624 -91 -8 -197
-15 -235 -16 -130 -1 -115 -15 24 -22 501 -26 1013 -140 1415 -316 332 -146
581 -315 830 -565 311 -312 533 -685 685 -1153 108 -332 189 -782 207 -1158 3
-75 7 -134 9 -132 1 1 8 85 14 187 83 1378 582 2272 1540 2757 421 214 988
352 1553 379 146 8 198 24 74 24 -40 0 -147 7 -238 15 -1194 113 -2007 573
-2483 1406 -249 435 -413 1055 -442 1672 -8 146 -24 198 -24 74z"/>
</g>
</svg>
